<svg width="23" height="20" viewBox="0 0 23 20" fill="none" xmlns="http://www.w3.org/2000/svg">
<path d="M16.4972 0H16.5167C18.3068 0 19.9269 0.765494 21.0969 2.00211L21.0972 2.00242C22.2719 3.24506 22.9985 4.9572 22.9999 6.84772V6.84801C23 6.86392 23 6.88276 23 6.9016C23 9.2149 22.326 11.3627 21.173 13.1397L21.1965 13.1014C20.1363 14.7056 18.8356 16.047 17.3357 17.0992L17.2834 17.1337C15.6614 18.304 13.7882 19.2666 11.7856 19.9201L11.638 19.9615L11.5 20L11.3631 19.9604C9.21286 19.2655 7.33968 18.3029 5.64637 17.0842L5.71764 17.1326C4.16498 16.046 2.86401 14.7046 1.83441 13.1497L1.80348 13.1003C0.674046 11.3614 0 9.21357 0 6.90016C0 6.88139 4.49214e-05 6.86267 0.000134764 6.84397V6.8468C0.0181932 3.07983 2.92726 0.0334341 6.51315 0.0334341C8.5102 0.0334341 10.2973 0.978283 11.492 2.46592L11.5 2.47612C12.6957 0.964116 14.4832 0.00668212 16.4836 2.35988e-05H16.4847L16.4972 0ZM11.5 18.8581C13.4884 18.1847 15.2172 17.2851 16.7886 16.1606L16.7179 16.2084C20.1929 13.7103 21.9544 10.5605 21.9544 6.8469C21.9526 5.2599 21.3423 3.82317 20.3557 2.78024L20.3559 2.78052C19.3737 1.74184 18.0136 1.09901 16.5107 1.09901H16.4878C14.591 1.10463 12.9226 2.12744 11.9496 3.67569L11.937 3.69711L11.5 4.39278L11.0609 3.70039C10.0662 2.14964 8.40145 1.14331 6.51311 1.14331C3.5071 1.14331 1.06769 3.69338 1.04559 6.84796V6.85018C1.04559 10.5605 2.80714 13.7103 6.28219 16.2084C7.78286 17.285 9.51159 18.1847 11.3558 18.8154L11.5 18.8581L11.5 18.8581ZM16.8046 12.1145L16.0854 11.3166C17.2141 10.1851 17.9263 8.60354 17.9608 6.84694L17.9609 6.84033V6.84028C17.9609 5.9905 17.3056 5.30165 16.4972 5.30165H16.4895H16.4899L16.4847 4.20266H16.4973C17.883 4.20266 19.0063 5.38356 19.0063 6.84028V6.85074V6.8502V6.85681C18.9665 8.92775 18.1302 10.7855 16.8074 12.1117L16.8046 12.1145L16.8046 12.1145Z" fill="white" fill-opacity="0.63"/>
</svg>
