<svg width="24" height="26" viewBox="0 0 24 26" fill="none" xmlns="http://www.w3.org/2000/svg">
<path d="M18.1357 26H5.86387C4.25404 26 2.93885 24.8136 2.85265 23.3198L2.8523 23.3126L1.7352 4.51453H22.2646L21.1464 23.3149C21.0586 24.8147 19.7443 25.9996 18.1357 26H18.1357L18.1357 26ZM3.06473 5.69639L4.10767 23.2487C4.15713 24.1251 4.92465 24.8181 5.8643 24.8182H18.1369C19.0758 24.8182 19.8429 24.1265 19.8934 23.2553L19.8936 23.2511L20.9353 5.69636L3.06473 5.69639ZM24 5.69639H0V4.51455H24V5.69639ZM9.60002 0H14.4C16.0716 0.00203125 17.4261 1.27598 17.4283 2.84799V5.69639H6.57171V2.84819C6.57387 1.27601 7.9284 0.00203125 9.59981 0H9.60002ZM16.1717 4.51455V2.84817C16.1703 1.92842 15.3779 1.18318 14.4001 1.18183H9.59997C8.62206 1.18315 7.8297 1.92839 7.82827 2.84804V4.51453L16.1717 4.51455ZM12.6283 22.0291H11.3717V8.48547H12.6283V22.0291ZM17.4283 22.0291H16.1718V8.48547H17.4283V22.0291ZM7.82827 22.0291H6.57171V8.48547H7.82827V22.0291Z" fill="#D4D4D4"/>
</svg>
